Coordinates
version=1
nRows=32
nColumns=12
inDegrees=yes

Units are S.I. units (second, meters, Newtons, ...)
Angles are in degrees

endheader
time	SC_y	SC_z	SC_x	AC_y	AC_z	AC_x	GH_y	GH_z	GH_yy	EL_x	PS_y
       0.0              -14.72          36.97          51.76          56.73          7.162          2.754         -168.5           49.9         -124.5          87.07          8.722
   0.04816              -14.72          36.97          51.76          56.73          7.158          2.754         -168.4          49.91         -124.5          87.06           8.74
   0.09631              -14.72          36.96          51.76          56.73          7.155          2.754         -168.4          49.91         -124.5          87.05          8.759
    0.1445              -14.73          36.96          51.76          56.72          7.151          2.754         -168.4          49.91         -124.5          87.04          8.779
    0.1926              -14.73          36.96          51.76          56.72          7.148          2.754         -168.3          49.92         -124.5          87.03          8.801
    0.2408              -14.74          36.96          51.76          56.72          7.143          2.754         -168.3          49.92         -124.5          87.02          8.824
    0.2889              -14.75          36.96          51.76          56.72          7.139          2.754         -168.2          49.92         -124.6          87.01          8.849
    0.3371              -14.75          36.95          51.76          56.71          7.134          2.754         -168.1          49.93         -124.6          86.99          8.875
    0.3852              -14.76          36.95          51.77          56.71          7.129          2.754         -168.1          49.93         -124.6          86.98          8.904
    0.4334              -14.77          36.95          51.77          56.71          7.124          2.754         -168.0          49.94         -124.6          86.97          8.934
    0.4816              -14.77          36.95          51.77          56.71          7.118          2.754         -167.9          49.94         -124.6          86.95          8.967
    0.5297              -14.78          36.94          51.77           56.7          7.112          2.754         -167.9          49.95         -124.6          86.94          9.002
    0.5779              -14.79          36.94          51.77           56.7          7.105          2.754         -167.8          49.95         -124.6          86.92           9.04
     0.626               -14.8          36.94          51.77          56.69          7.098          2.754         -167.7          49.96         -124.7           86.9           9.08
    0.6742              -14.81          36.93          51.77          56.69           7.09          2.754         -167.6          49.97         -124.7          86.88          9.125
    0.7223              -14.82          36.93          51.78          56.69          7.082          2.754         -167.5          49.97         -124.7          86.86          9.172
    0.7705              -14.83          36.92          51.78          56.68          7.073          2.754         -167.3          49.98         -124.7          86.83          9.225
    0.8187              -14.85          36.92          51.78          56.67          7.062          2.754         -167.2          49.99         -124.7          86.81          9.281
    0.8668              -14.86          36.91          51.78          56.67          7.052          2.755         -167.1           50.0         -124.8          86.78          9.343
     0.915              -14.88          36.91          51.79          56.66          7.039          2.755         -166.9          50.01         -124.8          86.75          9.411
    0.9631              -14.89           36.9          51.79          56.65          7.026          2.755         -166.7          50.02         -124.8          86.71          9.486
     1.011              -14.91          36.89          51.79          56.65          7.012          2.755         -166.6          50.03         -124.9          86.68          9.568
     1.059              -14.94          36.89           51.8          56.64          6.996          2.755         -166.4          50.05         -124.9          86.63          9.658
     1.108              -14.96          36.88           51.8          56.63          6.978          2.755         -166.1          50.06         -124.9          86.59          9.759
     1.156              -14.98          36.87          51.81          56.62          6.958          2.755         -165.9          50.08         -125.0          86.54           9.87
     1.204              -15.01          36.86          51.81          56.61          6.936          2.756         -165.6           50.1         -125.0          86.48          9.995
     1.252              -15.05          36.84          51.82          56.59          6.911          2.756         -165.3          50.12         -125.1          86.42          10.13
       1.3              -15.08          36.83          51.82          56.58          6.884          2.756         -164.9          50.14         -125.2          86.34          10.29
     1.348              -15.13          36.81          51.83          56.56          6.852          2.756         -164.5          50.17         -125.2          86.26          10.47
     1.397              -15.17           36.8          51.84          56.54          6.817          2.757         -164.1           50.2         -125.3          86.17          10.67
     1.445              -15.23          36.78          51.85          56.52          6.776          2.757         -163.5          50.23         -125.4          86.06           10.9
     1.493              -15.29          36.75          51.86          56.49          6.729          2.758         -162.9          50.27         -125.5          85.94          11.16
